# xmcd CD database file
#
# Track frame offsets:
#	187
#	18145
#	37092
#	55005
#
# Disc length: 984 seconds
#
# Revision: 6
# Processed by: cddbd v1.5.2PL0 Copyright (c) Steve Scherf et al.
# Submitted via: CDex 1.70beta2
#
DISCID=2703d604
DTITLE=酒井法子 - 鏡のドレス
DYEAR=1996
DGENRE=JPop
TTITLE0=鏡のドレス
TTITLE1=Star Talk 
TTITLE2=鏡のドレス(Original Karaoke)
TTITLE3=Star Talk (Original Karaoke)
EXTD=Noriko Sakai - Kagami no doresu YEAR: 1996
EXTT0=
EXTT1=
EXTT2=
EXTT3=
PLAYORDER=
